<?xml version="1.0" encoding="UTF-8"?>
<!-- Generator: Blender, SVG Export for Grease Pencil - v1.0 -->
<!DOCTYPE svg PUBLIC "-//W3C//DTD SVG 1.1//EN" "http://www.w3.org/Graphics/SVG/1.1/DTD/svg11.dtd">
<svg version="1.0" x="0px" y="0px" xmlns="http://www.w3.org/2000/svg" width="32px" height="32px" viewBox="0 0 32 32">
	<g id="blender_frame_1">
		<g id="blender_object_Stroke">
			<!--Layer: Lines-->
			<g id="Lines">
				<polygon stroke="#000000" stroke-opacity="1" fill="none" stroke-linecap="round" stroke-width="2" points="30.421993,13.435143 30.179409,12.488562 30.001007,11.525051 29.676365,10.600952 29.292049,9.700066 28.849701,8.826244 28.351219,7.983234 27.798737,7.174644 27.194618,6.403934 26.541454,5.674412 25.842037,4.989193 25.099369,4.351219 24.316624,3.763214 23.497154,3.227699 22.644472,2.746971 21.762226,2.323082 20.854193,1.957855 19.924267,1.652847 18.976421,1.409370 18.014723,1.228455 17.043287,1.110893 16.066275,1.057178 15.087864,1.067543 14.112251,1.141941 13.143613,1.280048 12.186092,1.481285 11.243795,1.744785 10.320757,2.069416 9.420925,2.453793 8.548155,2.896267 7.706185,3.394947 6.898620,3.947689 6.128917,4.552135 5.400374,5.205696 4.716110,5.905571 4.079051,6.648758 3.491932,7.432087 2.957267,8.252193 2.477341,9.105566 2.054210,9.988556 1.689689,10.897375 1.385331,11.828138 1.142451,12.776855 0.962081,13.739468 0.844995,14.711849 0.791696,15.689840 0.802409,16.669249 0.877095,17.645882 1.015424,18.615561 1.216813,19.574127 1.480395,20.517483 1.805041,21.441582 2.189363,22.342472 2.631714,23.216291 3.130196,24.059303 3.682681,24.867893 4.286801,25.638599 4.939969,26.368126 5.639388,27.053341 6.382060,27.691319 7.164808,28.279320 7.984282,28.814835 8.836966,29.295559 9.719212,29.719440 10.627241,30.084667 11.557169,30.389671 12.505011,30.633148 13.466706,30.814056 14.438142,30.931618 15.415155,30.985329 16.393562,30.974968 17.369175,30.900570 18.337809,30.762455 19.295326,30.561222 20.237621,30.297722 21.160660,29.973087 22.060490,29.588711 22.933258,29.146233 23.775223,28.647556 24.582787,28.094810 25.352486,27.490368 26.081028,26.836807 26.765293,26.136936 27.402348,25.393749 27.989464,24.610428 28.524128,23.790323 29.004051,22.936953 29.427181,22.053968 29.791706,21.145151 30.096058,20.214392 30.338940,19.265678 30.519314,18.303070 30.636398,17.330690 30.689701,16.352707 30.678989,15.373301 30.604309,14.396669" />
				<path fill-opacity="0.962322295" fill="#000000" stroke="none" d="M1.882869,17.430431L2.475066,17.567806L2.475402,17.567886L3.089587,17.711002L3.687747,17.843641L4.282058,17.970514L4.866211,18.088459L5.437280,18.194756L6.000867,18.291967L6.556129,18.380150L7.096370,18.455366L7.638558,18.526138L8.175194,18.591068L8.702471,18.647823L9.218714,18.694504L9.720873,18.728554L10.207741,18.748112L10.712083,18.768261L11.210988,18.785450L11.216362,18.785656L11.722281,18.807182L12.195723,18.812702L12.646031,18.798897L13.106538,18.777180L13.561243,18.747658L14.022797,18.705311L14.431498,18.659874L14.641110,18.866985L14.641110,18.866985L14.724288,18.861195L14.806997,18.871740L14.886060,18.898220L14.958438,18.939615L15.021349,18.994335L15.072375,19.060278L15.109557,19.134907L15.131465,19.215357L15.137257,19.298534L15.126710,19.381245L15.100230,19.460306L15.058835,19.532684L15.004115,19.595596L14.938172,19.646622L14.863543,19.683804L14.783093,19.705711L14.617708,19.977310L14.581758,19.982391L14.158633,20.031626L14.143950,20.033129L13.664860,20.076843L13.647323,20.078211L13.180834,20.108389L13.169052,20.109047L12.696859,20.131210L12.685173,20.131657L12.207095,20.145697L12.179325,20.145935L11.685741,20.139864L11.665598,20.139313L11.159679,20.117785L10.662502,20.100668L10.658857,20.100533L10.154026,20.080364L10.153538,20.080345L9.648451,20.059793L9.630232,20.058804L9.113234,20.023575L9.098394,20.022398L8.570892,19.974602L8.559635,19.973484L8.023661,19.915735L8.014961,19.914740L7.472123,19.849030L7.465920,19.848248L6.917974,19.776699L6.912214,19.775921L6.359418,19.698832L6.346862,19.696957L5.782852,19.607327L5.774102,19.605875L5.201816,19.507105L5.193116,19.505543L4.612142,19.397324L4.602237,19.395401L4.010863,19.275955L4.003644,19.274456L3.404174,19.146461L3.399014,19.145336L2.793929,19.011122L2.787004,19.009546L2.172818,18.866430L1.561920,18.724415L1.542888,18.719692L0.900247,18.550228L0.900249,18.550228L0.777753,18.504679L0.666499,18.436106L0.570760,18.347147L0.494217,18.241219L0.439807,18.122395L0.409626,17.995237L0.404831,17.864635L0.425607,17.735607L0.471160,17.613113L0.539730,17.501858L0.628689,17.406120L0.734616,17.329575L0.853443,17.275166L0.980598,17.244986L1.111199,17.240191L1.240230,17.260967L1.876442,17.428738z" />
				<path fill-opacity="0.914591551" fill="#000000" stroke="none" d="M17.231146,18.709778L17.243525,18.702143L17.084227,18.173111L17.249546,18.127419L17.421041,18.130306L17.714369,18.110867L17.872320,18.037344L18.246117,17.935513L18.649231,17.819759L19.049557,17.697395L19.447296,17.568495L19.842714,17.433142L20.235987,17.291420L20.627373,17.143402L21.017073,16.989174L21.405302,16.828810L21.792292,16.662388L22.178030,16.489946L22.558048,16.310291L22.941002,16.122324L23.327322,15.928581L23.710110,15.729784L24.082088,15.520006L24.471729,15.298594L24.863247,15.075665L25.254234,14.852037L25.644388,14.627003L26.034672,14.400000L26.425493,14.171097L26.817390,13.941063L27.207710,13.709387L27.588993,13.472698L27.980114,13.226698L28.362633,12.983770L28.765823,12.725325L29.095978,12.511766L29.594662,12.187309L29.594662,12.187309L29.710667,12.127117L29.836185,12.090714L29.966393,12.079496L30.096283,12.093897L30.220875,12.133362L30.335369,12.196375L30.435371,12.280514L30.517036,12.382545L30.577229,12.498547L30.613632,12.624065L30.624851,12.754272L30.610451,12.884167L30.570984,13.008755L30.507973,13.123249L30.423832,13.223251L30.321800,13.304918L29.821621,13.630344L29.820126,13.631315L29.487656,13.846363L29.485344,13.847851L29.079788,14.107807L29.077419,14.109320L28.692429,14.353809L28.689960,14.355370L28.295361,14.603542L28.291882,14.605713L27.899418,14.849186L27.888241,14.855972L27.495129,15.089294L27.492340,15.090940L27.099895,15.321297L27.099346,15.321619L26.706776,15.551544L26.705029,15.552563L26.312649,15.780781L26.310551,15.781994L25.918304,16.008230L25.916210,16.009432L25.524109,16.233696L25.522991,16.234335L25.130962,16.457556L25.130447,16.457848L24.738411,16.680614L24.736015,16.681969L24.344246,16.902449L24.324453,16.913151L23.933319,17.116207L23.924974,17.120466L23.533472,17.316780L23.528290,17.319351L23.136414,17.511612L23.127493,17.515907L22.734735,17.701416L22.721996,17.707272L22.327543,17.883533L22.318832,17.887352L21.922981,18.057505L21.914120,18.061237L21.516695,18.225319L21.507500,18.229034L21.108286,18.386944L21.098774,18.390623L20.697577,18.542261L20.687761,18.545883L20.284370,18.691158L20.274250,18.694710L19.868450,18.833519L19.858068,18.836975L19.449673,18.969227L19.439014,18.972580L19.027803,19.098169L19.016918,19.101393L18.602688,19.220230L18.591570,19.223316L18.174114,19.335300L18.130455,19.345451L17.737160,19.423061L17.501814,19.427151L17.229513,19.316372L17.292162,18.794859L17.022837,18.637627L17.022837,18.637627L17.061939,18.611208L17.105446,18.592926L17.151684,18.583483L17.198874,18.583241L17.245205,18.592211L17.288897,18.610046L17.328270,18.636063L17.361809,18.669262L17.388227,18.708366L17.406509,18.751873L17.415953,18.798109L17.416195,18.845299L17.407225,18.891632L17.389389,18.935322L17.363373,18.974693L17.330173,19.008234L17.232136,18.712761z" />
			</g>
		</g>
	</g>
	<g id="blender_frame_1">
		<g id="blender_object_Stroke.001">
			<!--Layer: Lines-->
			<g id="Lines">
				<polygon stroke="#000000" stroke-opacity="1" fill="none" stroke-linecap="round" stroke-width="2" points="17.786566,18.882114 17.765919,18.783836 17.738894,18.687120 17.705610,18.592377 17.666208,18.500013 17.620855,18.410423 17.569750,18.323994 17.513105,18.241093 17.451168,18.162077 17.384203,18.087282 17.312494,18.017029 17.236353,17.951622 17.156101,17.891335 17.072084,17.836432 16.984663,17.787146 16.894211,17.743687 16.801115,17.706242 16.705774,17.674969 16.608595,17.650007 16.509996,17.631458 16.410400,17.619406 16.310232,17.613899 16.209919,17.614960 16.109896,17.622589 16.010586,17.636749 15.912415,17.657379 15.815805,17.684395 15.721170,17.717678 15.628916,17.757088 15.539434,17.802452 15.453111,17.853579 15.370316,17.910248 15.291401,17.972219 15.216707,18.039227 15.146553,18.110981 15.081238,18.187176 15.021044,18.267487 14.966227,18.351570 14.917023,18.439062 14.873641,18.529591 14.836267,18.622768 14.805063,18.718193 14.780162,18.815462 14.761670,18.914154 14.749665,19.013847 14.744201,19.114117 14.745299,19.214531 14.752956,19.314659 14.767138,19.414078 14.787786,19.512354 14.814810,19.609072 14.848094,19.703815 14.887497,19.796179 14.932849,19.885769 14.983956,19.972198 15.040600,20.055099 15.102538,20.134115 15.169504,20.208910 15.241212,20.279163 15.317355,20.344570 15.397606,20.404856 15.481623,20.459761 15.569044,20.509047 15.659497,20.552505 15.752593,20.589951 15.847935,20.621222 15.945112,20.646183 16.043711,20.664730 16.143307,20.676785 16.243475,20.682291 16.343786,20.681229 16.443811,20.673601 16.543121,20.659441 16.641291,20.638809 16.737900,20.611794 16.832535,20.578510 16.924789,20.539103 17.014271,20.493736 17.100594,20.442610 17.183390,20.385941 17.262302,20.323969 17.336998,20.256962 17.407152,20.185207 17.472466,20.109013 17.532660,20.028702 17.587477,19.944622 17.636681,19.857128 17.680063,19.766602 17.717436,19.673424 17.748640,19.577997 17.773540,19.480730 17.792034,19.382038 17.804037,19.282345 17.809504,19.182077 17.808405,19.081663 17.800749,18.981533" />
			</g>
		</g>
	</g>
</svg>
